<svg width="48" height="48" viewBox="0 0 48 48" fill="none" xmlns="http://www.w3.org/2000/svg">
<g clip-path="url(#clip0_179556_104656)">
<mask id="mask0_179556_104656" style="mask-type:luminance" maskUnits="userSpaceOnUse" x="0" y="0" width="48" height="48">
<path d="M48 0H0V48H48V0Z" fill="white"/>
</mask>
<g mask="url(#mask0_179556_104656)">
<path d="M48 0H0V48H48V0Z" fill="#FF0032"/>
<path d="M31.9766 3.69153V5.90058H36.807V14.7662H39.507V5.90058H44.3276V3.69153H31.9766Z" fill="white"/>
<path d="M14.609 3.69153L11.0745 11.0158L7.54986 3.69153H3.69141V14.7662H6.40116V6.8431L9.84726 13.5389H12.3116L15.7576 6.8431V14.7662H18.4576V3.69153H14.609Z" fill="white"/>
<path d="M41.6276 40.6168C41.5588 41.0586 41.3821 41.4219 41.0974 41.6968C40.8323 41.9521 40.469 42.1386 40.0174 42.2466C39.5756 42.3448 38.9179 42.4037 38.2306 42.4037C37.5139 42.4037 36.8855 42.3153 36.3455 42.1288C35.8251 41.9521 35.4128 41.6379 35.128 41.2059C34.8335 40.7739 34.6862 40.1456 34.6862 39.3307V38.2016C34.6862 37.3965 34.8335 36.7682 35.128 36.3264C35.4226 35.8944 35.8251 35.5803 36.3455 35.4036C36.8757 35.217 37.5139 35.1286 38.2306 35.1286C38.9179 35.1286 39.5756 35.1876 40.0174 35.2857C40.469 35.3937 40.8323 35.5704 41.0974 35.8354C41.3821 36.1104 41.5588 36.4736 41.6276 36.9154H44.3275C44.2489 36.0024 43.9447 35.2268 43.4047 34.5985C42.9137 34.029 42.2265 33.6166 41.3723 33.3614C40.5476 33.1159 39.4577 32.9883 38.2306 32.9883C36.9346 32.9883 35.8153 33.1748 34.8924 33.5381C33.9598 33.9112 33.2332 34.5297 32.7325 35.3839C32.2514 36.1987 32.006 37.2984 31.9863 38.6336V38.7613L32.1336 38.7711L31.9863 38.7809V38.7907V38.9085C32.006 40.2438 32.2514 41.3433 32.7325 42.1582C33.2332 43.0124 33.9598 43.631 34.8924 44.0041C35.8153 44.3673 36.9346 44.5539 38.2306 44.5539C39.4577 44.5539 40.5476 44.4262 41.3723 44.1808C42.2265 43.9255 42.9039 43.5132 43.4047 42.9437C43.9447 42.3252 44.2587 41.5397 44.3275 40.6266H41.6276V40.6168Z" fill="white"/>
</g>
</g>
<defs>
<clipPath id="clip0_179556_104656">
<rect width="48" height="48" fill="white"/>
</clipPath>
</defs>
</svg>
