<svg width="48" height="48" viewBox="0 0 48 48" fill="none" xmlns="http://www.w3.org/2000/svg">
<g clip-path="url(#clip0_179556_104742)">
<path d="M43.5858 0H4.41421C1.97631 0 0 1.97631 0 4.41421V43.5858C0 46.0237 1.97631 48 4.41421 48H43.5858C46.0237 48 48 46.0237 48 43.5858V4.41421C48 1.97631 46.0237 0 43.5858 0Z" fill="black"/>
<path fill-rule="evenodd" clip-rule="evenodd" d="M26.5739 7.74187L26.5613 14.9373L26.5486 22.1328L25.9566 20.4624C25.9564 20.4618 25.9557 20.4597 25.9555 20.4591L25.1905 36.4781C25.9426 38.6021 26.3456 39.7359 26.3501 39.7405C26.356 39.7464 26.7846 39.7723 27.3026 39.798C28.8719 39.8758 30.8165 40.0427 32.2918 40.226C32.6333 40.2684 32.9273 40.2902 32.945 40.2743C32.9627 40.2585 32.9723 32.9322 32.9664 23.9937L32.9556 7.74187H26.5739ZM15.0312 7.72046V23.9887C15.0312 32.9363 15.04 40.2658 15.0507 40.2765C15.0614 40.2872 15.6156 40.2349 16.2821 40.1603C16.9486 40.0856 17.8698 39.9928 18.3292 39.954C19.0337 39.8945 21.1371 39.7593 21.3807 39.7578C21.4515 39.7574 21.4561 39.3918 21.4663 32.8673L21.4772 25.9772L21.9861 27.4171C22.0648 27.6397 22.0894 27.7092 22.1661 27.926L22.9309 11.911C22.7688 11.4528 22.8538 11.6933 22.668 11.1683C22.0432 9.40154 21.5129 7.90302 21.4897 7.83824L21.4474 7.72046H15.0312Z" fill="#B1060F" stroke="black" stroke-width="0.310123"/>
<path fill-rule="evenodd" clip-rule="evenodd" d="M15.0313 7.72046V16.8523L21.4642 33.9166C21.4649 33.5255 21.4656 33.3142 21.4663 32.8673L21.4772 25.9772L21.9861 27.4171C24.8191 35.4334 26.3411 39.7315 26.3501 39.7405C26.356 39.7464 26.7846 39.7723 27.3026 39.798C28.8719 39.8758 30.8165 40.0427 32.2918 40.226C32.6333 40.2684 32.9273 40.2902 32.945 40.2743C32.9572 40.2634 32.9651 36.6712 32.9672 31.6035L26.5644 13.1953L26.5613 14.9373L26.5486 22.1328L25.9566 20.4624C25.3782 18.8303 24.9919 17.7387 22.668 11.1683C22.0432 9.40154 21.5129 7.90302 21.4897 7.83824L21.4474 7.72046H15.0313Z" fill="url(#paint0_radial_179556_104742)"/>
<path fill-rule="evenodd" clip-rule="evenodd" d="M15.0312 7.72046L21.477 25.9855V25.9772L21.986 27.4171C24.819 35.4334 26.341 39.7315 26.35 39.7405C26.3559 39.7464 26.7845 39.7722 27.3025 39.798C28.8717 39.8758 30.8164 40.0427 32.2916 40.226C32.6314 40.2682 32.9239 40.2899 32.9443 40.2745L26.5485 22.1294V22.1328L25.9565 20.4624C25.378 18.8303 24.9918 17.7387 22.6679 11.1683C22.043 9.40154 21.5128 7.90302 21.4896 7.83824L21.4473 7.72046L15.0312 7.72046Z" fill="#E50914"/>
<path fill-rule="evenodd" clip-rule="evenodd" d="M26.5739 7.74187L26.5613 14.9373L26.5486 22.1328L25.9566 20.4624C25.9564 20.4618 25.9557 20.4597 25.9555 20.4591L25.1905 36.4781C25.9426 38.6021 26.3456 39.7359 26.3501 39.7405C26.356 39.7464 26.7846 39.7723 27.3026 39.798C28.8719 39.8758 30.8165 40.0427 32.2918 40.226C32.6333 40.2684 32.9273 40.2902 32.945 40.2743C32.9627 40.2585 32.9723 32.9322 32.9664 23.9937L32.9556 7.74187H26.5739ZM15.0312 7.72046V23.9887C15.0312 32.9363 15.04 40.2658 15.0507 40.2765C15.0614 40.2872 15.6156 40.2349 16.2821 40.1603C16.9486 40.0856 17.8698 39.9928 18.3292 39.954C19.0337 39.8945 21.1371 39.7593 21.3807 39.7578C21.4515 39.7574 21.4561 39.3918 21.4663 32.8673L21.4772 25.9772L21.9861 27.4171C22.0648 27.6397 22.0894 27.7092 22.1661 27.926L22.9309 11.911C22.7688 11.4528 22.8538 11.6933 22.668 11.1683C22.0432 9.40154 21.5129 7.90302 21.4897 7.83824L21.4474 7.72046H15.0312Z" fill="#B1060F" stroke="black" stroke-width="0.310123"/>
<path fill-rule="evenodd" clip-rule="evenodd" d="M15.0313 7.72046V16.8523L21.4642 33.9166C21.4649 33.5255 21.4656 33.3142 21.4663 32.8673L21.4772 25.9772L21.9861 27.4171C24.8191 35.4334 26.3411 39.7315 26.3501 39.7405C26.356 39.7464 26.7846 39.7723 27.3026 39.798C28.8719 39.8758 30.8165 40.0427 32.2918 40.226C32.6333 40.2684 32.9273 40.2902 32.945 40.2743C32.9572 40.2634 32.9651 36.6712 32.9672 31.6035L26.5644 13.1953L26.5613 14.9373L26.5486 22.1328L25.9566 20.4624C25.3782 18.8303 24.9919 17.7387 22.668 11.1683C22.0432 9.40154 21.5129 7.90302 21.4897 7.83824L21.4474 7.72046H15.0313Z" fill="url(#paint1_radial_179556_104742)"/>
<path fill-rule="evenodd" clip-rule="evenodd" d="M15.0312 7.72046L21.477 25.9855V25.9772L21.986 27.4171C24.819 35.4334 26.341 39.7315 26.35 39.7405C26.3559 39.7464 26.7845 39.7722 27.3025 39.798C28.8717 39.8758 30.8164 40.0427 32.2916 40.226C32.6314 40.2682 32.9239 40.2899 32.9443 40.2745L26.5485 22.1294V22.1328L25.9565 20.4624C25.378 18.8303 24.9918 17.7387 22.6679 11.1683C22.043 9.40154 21.5128 7.90302 21.4896 7.83824L21.4473 7.72046L15.0312 7.72046Z" fill="#E50914"/>
</g>
<defs>
<radialGradient id="paint0_radial_179556_104742" cx="0" cy="0" r="1" gradientUnits="userSpaceOnUse" gradientTransform="translate(23.7014 23.8107) rotate(-19.0977) scale(4.06529 148.908)">
<stop/>
<stop offset="1" stop-opacity="0"/>
</radialGradient>
<radialGradient id="paint1_radial_179556_104742" cx="0" cy="0" r="1" gradientUnits="userSpaceOnUse" gradientTransform="translate(23.7014 23.8107) rotate(-19.0977) scale(4.06529 148.908)">
<stop/>
<stop offset="1" stop-opacity="0"/>
</radialGradient>
<clipPath id="clip0_179556_104742">
<rect width="48" height="48" fill="white"/>
</clipPath>
</defs>
</svg>
