<svg width="48" height="48" viewBox="0 0 48 48" fill="none" xmlns="http://www.w3.org/2000/svg">
<rect width="48" height="48" rx="4" fill="black"/>
<path d="M34.125 21.1919C34.4906 21.7666 34.8081 22.374 35.073 23.0082C35.9885 25.2 36.2328 27.6143 35.7751 29.9451C35.3174 32.276 34.1782 34.4185 32.5019 36.1014C30.8255 37.7843 28.6874 38.9319 26.3584 39.3988C24.0294 39.8656 21.6142 39.6307 19.4187 38.7239C18.0536 38.1599 16.8116 37.352 15.75 36.347M32.25 18.9186C31.7511 18.4463 31.2104 18.0156 30.6327 17.6325C28.6531 16.3195 26.3285 15.6236 23.9532 15.6329C22.3801 15.635 20.8228 15.9471 19.3705 16.5514C17.9182 17.1558 16.5991 18.0405 15.489 19.155C14.3789 20.2695 13.4993 21.5919 12.9006 23.0466C12.302 24.5014 11.9959 26.0598 12 27.6329C12.0001 29.9163 12.6515 32.1502 13.875 34.0736M24 21.0393C23.1449 21.0372 22.2931 21.1995 21.4921 21.522C20.2699 22.0141 19.2208 22.857 18.477 23.9445C17.7331 25.032 17.328 26.3154 17.3125 27.6329C17.3104 28.507 17.4806 29.373 17.8132 30.1813C18.1459 30.9896 18.6344 31.7246 19.2511 32.3441C19.8595 32.9555 20.5809 33.4426 21.375 33.7786M26.625 21.5842C27.4131 21.924 28.1322 22.4142 28.74 23.0321C29.664 23.9713 30.2892 25.1631 30.5369 26.4572C30.7845 27.7512 30.6435 29.0896 30.1315 30.3036C29.6195 31.5176 28.7595 32.5529 27.66 33.2789C26.5735 33.9962 25.3012 34.3035 24 34.3049M26.9532 11.1642C26.9532 11.7143 26.79 12.252 26.4844 12.7093C26.1788 13.1668 25.7444 13.5232 25.2362 13.7337C24.728 13.9442 24.1688 13.9993 23.6293 13.892C23.0898 13.7847 22.5943 13.5198 22.2052 13.1308C21.8163 12.7419 21.5514 12.2463 21.4441 11.7068C21.3368 11.1673 21.3919 10.6081 21.6024 10.0998C21.8128 9.59164 22.1693 9.15727 22.6267 8.85166C23.0841 8.54605 23.6218 8.38293 24.1719 8.38293C24.9095 8.38293 25.617 8.67596 26.1385 9.19754C26.6601 9.71913 26.9532 10.4266 26.9532 11.1642ZM34.2031 11.1642C34.2031 11.7149 34.0396 12.2533 33.7333 12.711C33.427 13.1687 32.9917 13.5251 32.4826 13.7352C31.9734 13.9452 31.4134 13.9994 30.8735 13.8908C30.3336 13.7822 29.838 13.5157 29.4497 13.1252C29.0613 12.7347 28.7977 12.2377 28.6922 11.6971C28.5867 11.1566 28.644 10.5969 28.8568 10.089C29.0697 9.58105 29.4287 9.14777 29.8881 8.84405C30.3475 8.54033 30.8868 8.37984 31.4375 8.38293C31.802 8.38293 32.1629 8.45498 32.4995 8.59494C32.836 8.7349 33.1416 8.94002 33.3987 9.19848C33.6557 9.45695 33.859 9.76368 33.9971 10.101C34.1352 10.4384 34.2052 10.7997 34.2031 11.1642ZM16.9219 13.9298C16.3711 13.9298 15.8328 13.7663 15.3751 13.4599C14.9174 13.1536 14.561 12.7183 14.3509 12.2092C14.1409 11.7001 14.0867 11.1401 14.1953 10.6002C14.3039 10.0603 14.5703 9.56472 14.9609 9.17639C15.3514 8.78805 15.8484 8.52441 16.389 8.41886C16.9295 8.31332 17.4892 8.37063 17.9971 8.58354C18.505 8.79644 18.9383 9.15535 19.2421 9.61477C19.5457 10.0742 19.7062 10.6135 19.7032 11.1642C19.7032 11.5287 19.6311 11.8896 19.4911 12.2262C19.3512 12.5627 19.1461 12.8683 18.8876 13.1253C18.6292 13.3823 18.3224 13.5857 17.9851 13.7238C17.6477 13.8619 17.2864 13.9318 16.9219 13.9298Z" stroke="white" stroke-width="2" stroke-linecap="round"/>
<g style="mix-blend-mode:overlay">
<path d="M34.125 21.1919C34.4906 21.7666 34.8081 22.374 35.073 23.0082C35.9885 25.2 36.2328 27.6143 35.7751 29.9451C35.3174 32.276 34.1782 34.4185 32.5019 36.1014C30.8255 37.7843 28.6874 38.9319 26.3584 39.3988C24.0294 39.8656 21.6142 39.6307 19.4187 38.7239C18.0536 38.1599 16.8116 37.352 15.75 36.347M32.25 18.9186C31.7511 18.4463 31.2104 18.0156 30.6327 17.6325C28.6531 16.3195 26.3285 15.6236 23.9532 15.6329C22.3801 15.635 20.8228 15.9471 19.3705 16.5514C17.9182 17.1558 16.5991 18.0405 15.489 19.155C14.3789 20.2695 13.4993 21.5919 12.9006 23.0466C12.302 24.5014 11.9959 26.0598 12 27.6329C12.0001 29.9163 12.6515 32.1502 13.875 34.0736M24 21.0393C23.1449 21.0372 22.2931 21.1995 21.4921 21.522C20.2699 22.0141 19.2208 22.857 18.477 23.9445C17.7331 25.032 17.328 26.3154 17.3125 27.6329C17.3104 28.507 17.4806 29.373 17.8132 30.1813C18.1459 30.9896 18.6344 31.7246 19.2511 32.3441C19.8595 32.9555 20.5809 33.4426 21.375 33.7786M26.625 21.5842C27.4131 21.924 28.1322 22.4142 28.74 23.0321C29.664 23.9713 30.2892 25.1631 30.5369 26.4572C30.7845 27.7512 30.6435 29.0896 30.1315 30.3036C29.6195 31.5176 28.7595 32.5529 27.66 33.2789C26.5735 33.9962 25.3012 34.3035 24 34.3049M26.9532 11.1642C26.9532 11.7143 26.79 12.252 26.4844 12.7093C26.1788 13.1668 25.7444 13.5232 25.2362 13.7337C24.728 13.9442 24.1688 13.9993 23.6293 13.892C23.0898 13.7847 22.5943 13.5198 22.2052 13.1308C21.8163 12.7419 21.5514 12.2463 21.4441 11.7068C21.3368 11.1673 21.3919 10.6081 21.6024 10.0998C21.8128 9.59164 22.1693 9.15727 22.6267 8.85166C23.0841 8.54605 23.6218 8.38293 24.1719 8.38293C24.9095 8.38293 25.617 8.67596 26.1385 9.19754C26.6601 9.71913 26.9532 10.4266 26.9532 11.1642ZM34.2031 11.1642C34.2031 11.7149 34.0396 12.2533 33.7333 12.711C33.427 13.1687 32.9917 13.5251 32.4826 13.7352C31.9734 13.9452 31.4134 13.9994 30.8735 13.8908C30.3336 13.7822 29.838 13.5157 29.4497 13.1252C29.0613 12.7347 28.7977 12.2377 28.6922 11.6971C28.5867 11.1566 28.644 10.5969 28.8568 10.089C29.0697 9.58105 29.4287 9.14777 29.8881 8.84405C30.3475 8.54033 30.8868 8.37984 31.4375 8.38293C31.802 8.38293 32.1629 8.45498 32.4995 8.59494C32.836 8.7349 33.1416 8.94002 33.3987 9.19848C33.6557 9.45695 33.859 9.76368 33.9971 10.101C34.1352 10.4384 34.2052 10.7997 34.2031 11.1642ZM16.9219 13.9298C16.3711 13.9298 15.8328 13.7663 15.3751 13.4599C14.9174 13.1536 14.561 12.7183 14.3509 12.2092C14.1409 11.7001 14.0867 11.1401 14.1953 10.6002C14.3039 10.0603 14.5703 9.56472 14.9609 9.17639C15.3514 8.78805 15.8484 8.52441 16.389 8.41886C16.9295 8.31332 17.4892 8.37063 17.9971 8.58354C18.505 8.79644 18.9383 9.15535 19.2421 9.61477C19.5457 10.0742 19.7062 10.6135 19.7032 11.1642C19.7032 11.5287 19.6311 11.8896 19.4911 12.2262C19.3512 12.5627 19.1461 12.8683 18.8876 13.1253C18.6292 13.3823 18.3224 13.5857 17.9851 13.7238C17.6477 13.8619 17.2864 13.9318 16.9219 13.9298Z" stroke="white" stroke-width="2" stroke-linecap="round"/>
</g>
<g style="mix-blend-mode:overlay">
<path d="M34.125 21.1919C34.4906 21.7666 34.8081 22.374 35.073 23.0082C35.9885 25.2 36.2328 27.6143 35.7751 29.9451C35.3174 32.276 34.1782 34.4185 32.5019 36.1014C30.8255 37.7843 28.6874 38.9319 26.3584 39.3988C24.0294 39.8656 21.6142 39.6307 19.4187 38.7239C18.0536 38.1599 16.8116 37.352 15.75 36.347M32.25 18.9186C31.7511 18.4463 31.2104 18.0156 30.6327 17.6325C28.6531 16.3195 26.3285 15.6236 23.9532 15.6329C22.3801 15.635 20.8228 15.9471 19.3705 16.5514C17.9182 17.1558 16.5991 18.0405 15.489 19.155C14.3789 20.2695 13.4993 21.5919 12.9006 23.0466C12.302 24.5014 11.9959 26.0598 12 27.6329C12.0001 29.9163 12.6515 32.1502 13.875 34.0736M24 21.0393C23.1449 21.0372 22.2931 21.1995 21.4921 21.522C20.2699 22.0141 19.2208 22.857 18.477 23.9445C17.7331 25.032 17.328 26.3154 17.3125 27.6329C17.3104 28.507 17.4806 29.373 17.8132 30.1813C18.1459 30.9896 18.6344 31.7246 19.2511 32.3441C19.8595 32.9555 20.5809 33.4426 21.375 33.7786M26.625 21.5842C27.4131 21.924 28.1322 22.4142 28.74 23.0321C29.664 23.9713 30.2892 25.1631 30.5369 26.4572C30.7845 27.7512 30.6435 29.0896 30.1315 30.3036C29.6195 31.5176 28.7595 32.5529 27.66 33.2789C26.5735 33.9962 25.3012 34.3035 24 34.3049M26.9532 11.1642C26.9532 11.7143 26.79 12.252 26.4844 12.7093C26.1788 13.1668 25.7444 13.5232 25.2362 13.7337C24.728 13.9442 24.1688 13.9993 23.6293 13.892C23.0898 13.7847 22.5943 13.5198 22.2052 13.1308C21.8163 12.7419 21.5514 12.2463 21.4441 11.7068C21.3368 11.1673 21.3919 10.6081 21.6024 10.0998C21.8128 9.59164 22.1693 9.15727 22.6267 8.85166C23.0841 8.54605 23.6218 8.38293 24.1719 8.38293C24.9095 8.38293 25.617 8.67596 26.1385 9.19754C26.6601 9.71913 26.9532 10.4266 26.9532 11.1642ZM34.2031 11.1642C34.2031 11.7149 34.0396 12.2533 33.7333 12.711C33.427 13.1687 32.9917 13.5251 32.4826 13.7352C31.9734 13.9452 31.4134 13.9994 30.8735 13.8908C30.3336 13.7822 29.838 13.5157 29.4497 13.1252C29.0613 12.7347 28.7977 12.2377 28.6922 11.6971C28.5867 11.1566 28.644 10.5969 28.8568 10.089C29.0697 9.58105 29.4287 9.14777 29.8881 8.84405C30.3475 8.54033 30.8868 8.37984 31.4375 8.38293C31.802 8.38293 32.1629 8.45498 32.4995 8.59494C32.836 8.7349 33.1416 8.94002 33.3987 9.19848C33.6557 9.45695 33.859 9.76368 33.9971 10.101C34.1352 10.4384 34.2052 10.7997 34.2031 11.1642ZM16.9219 13.9298C16.3711 13.9298 15.8328 13.7663 15.3751 13.4599C14.9174 13.1536 14.561 12.7183 14.3509 12.2092C14.1409 11.7001 14.0867 11.1401 14.1953 10.6002C14.3039 10.0603 14.5703 9.56472 14.9609 9.17639C15.3514 8.78805 15.8484 8.52441 16.389 8.41886C16.9295 8.31332 17.4892 8.37063 17.9971 8.58354C18.505 8.79644 18.9383 9.15535 19.2421 9.61477C19.5457 10.0742 19.7062 10.6135 19.7032 11.1642C19.7032 11.5287 19.6311 11.8896 19.4911 12.2262C19.3512 12.5627 19.1461 12.8683 18.8876 13.1253C18.6292 13.3823 18.3224 13.5857 17.9851 13.7238C17.6477 13.8619 17.2864 13.9318 16.9219 13.9298Z" stroke="white" stroke-width="0.5" stroke-linecap="round"/>
</g>
</svg>
