<svg width="48" height="48" viewBox="0 0 48 48" fill="none" xmlns="http://www.w3.org/2000/svg">
<g clip-path="url(#clip0_179556_104700)">
<path fill-rule="evenodd" clip-rule="evenodd" d="M3.79146 3.37C0.490234 6.75 0.490234 12.17 0.490234 23.04V24.96C0.490234 35.82 0.490234 41.26 3.79146 44.63C7.10248 48 12.4119 48 23.06 48H24.9408C35.5792 48 40.9082 48 44.2094 44.63C47.5106 41.25 47.5106 35.83 47.5106 24.96V23.04C47.5106 12.18 47.5106 6.74 44.2094 3.37C40.8984 0 35.589 0 24.9408 0H23.06C12.4217 0 7.09268 0 3.79146 3.37ZM8.43472 14.67C8.67962 27.15 15.1155 34.67 25.7245 34.67H26.3417V27.52C30.2111 27.92 33.091 30.87 34.2666 34.67H39.8404C39.2906 32.529 38.3063 30.5298 36.9512 28.8019C35.5961 27.0741 33.9005 25.6561 31.9743 24.64C34.4037 23.15 37.8519 19.55 38.6649 14.67H33.5906C32.5327 18.64 29.3686 22.24 26.3417 22.58V14.67H21.189V28.52C18.0543 27.72 13.9694 23.84 13.8029 14.67H8.43472Z" fill="#0077FF"/>
</g>
<defs>
<clipPath id="clip0_179556_104700">
<rect width="48" height="48" fill="white"/>
</clipPath>
</defs>
</svg>
