<svg width="48" height="48" viewBox="0 0 48 48" fill="none" xmlns="http://www.w3.org/2000/svg">
<path d="M23.9996 43.6364C34.845 43.6364 43.636 34.8453 43.636 24C43.636 13.1547 34.845 4.36365 23.9996 4.36365C13.1543 4.36365 4.36328 13.1547 4.36328 24C4.36328 34.8453 13.1543 43.6364 23.9996 43.6364Z" fill="#FC3F1D"/>
<path d="M30.2684 34.9964H26.3713V15.7195H24.6358C21.4622 15.7195 19.7931 17.3237 19.7931 19.6966C19.7931 22.3959 20.9547 23.639 23.3277 25.2432L25.2913 26.5527L19.6451 34.9964H15.4414L20.5136 27.459C17.5954 25.3836 15.9655 23.3384 15.9655 19.9262C15.9655 15.6213 18.9427 12.7091 24.6207 12.7091H30.2669L30.2684 34.9964Z" fill="white"/>
</svg>
